<?xml version="1.0" encoding="utf-8"?>
<!-- Generator: Adobe Illustrator 16.0.0, SVG Export Plug-In . SVG Version: 6.00 Build 0)  -->
<!DOCTYPE svg PUBLIC "-//W3C//DTD SVG 1.1//EN" "http://www.w3.org/Graphics/SVG/1.1/DTD/svg11.dtd">
<svg version="1.1" id="Capa_1" xmlns="http://www.w3.org/2000/svg" xmlns:xlink="http://www.w3.org/1999/xlink" x="0px" y="0px"
	 width="94.726px" height="95.073px" viewBox="0 0 94.726 95.073" enable-background="new 0 0 94.726 95.073" xml:space="preserve">
<circle fill="#5AAD57" stroke="#4AA647" stroke-width="0.5153" stroke-miterlimit="10" cx="47.326" cy="47.325" r="47.326"/>
<path fill-rule="evenodd" clip-rule="evenodd" fill="#FFFFFF" d="M56.199,64.718c0.107,0.03-0.038,0.289-0.038,0.406
	c0.055,0.166,0.208,0.146,0.37,0.104c-0.126,0.147-0.107,0.537,0.233,0.374c-0.101,0.185-0.259,0.587,0.093,0.643
	c-0.352,0.303,0.08,0.536-0.128,0.827c0.208,0.299,0.782,0.291,0.947-0.024c0.142,0.533,0.608,0.005,0.925,0.267
	c0.43-0.21,0.475-0.249,0.843-0.162c1.157-0.406,2.296-0.975,3.445-1.496c0.317,0.189,0.815,0.404,0.921,0.771
	c0.225,0.796-1.235,1.501-1.293,2.262c-0.191,0.07-0.179,0.249-0.406,0.302c0.198,0.526-0.079,0.81,0.018,1.282
	c-0.592,0.517-1.528,0.621-1.887,1.279c-0.174,0.115-0.145-0.165-0.304-0.071c-0.31,0.415-0.625,0.358-1.088,0.629
	c-0.11-0.199,0.073-0.244,0.104-0.371c-0.443,0.023-0.209-0.352-0.348-0.559c-0.31,0.02-0.53,0.424-0.75,0.632
	c0.084,0.253,0.11,0.479,0.112,0.692c-1.38,0.737-1.947,2.111-3.878,2.422c-0.107-0.211-0.006-0.315-0.113-0.525
	c-0.703-0.435-0.938-1.396-1.389-2.414c-0.673,0.393-0.932,0.994-1.504,1.436c0.083,5.957-2.13,11.475-8.649,13.929
	c-4.495,1.69-8.868,1.28-11.984-0.138c-3.012-1.371-5.909-4.139-7.111-8.539c-0.977-3.574-0.515-7.386,0.928-10.389
	c1.588-3.299,4.348-6.173,9.355-7.539c1.75-0.478,3.134-0.621,4.782-0.469c0.116-0.152-0.154-0.244-0.147-0.457
	c0.13-0.579,0.296-1.161,0.425-1.817c0.106-0.533,0.387-1.368,0.241-1.871c-0.16-0.555-1.154-1.481-1.534-1.636
	c-0.434-0.183-0.995-0.077-1.483-0.256c-0.582-0.215-1.052-0.693-1.591-0.948c-3.502-1.647-8.483-0.789-11.628-3.389
	c-0.207-0.175-0.41-0.528-0.771-0.483c-0.165,0.283,0.062,0.769,0.09,1.151c-0.1,0.166-0.247-0.07-0.372-0.106
	c-0.347,0.15-0.636,0.192-0.826,0.041c-0.093-0.203,0.267-0.174,0.223-0.354c-0.162-1.63,0.609-3.863-0.764-5.527
	c-0.339,0-0.738,0.112-1.014-0.014c0.233-1.817,0.091-3.861,0.639-5.697c0.159-0.534,0.724-1.449,0.425-1.818
	c-0.258-0.182-0.762,0.109-1.167,0.208c-0.991-0.233-2.304-1.452-2.463-2.966c-0.021-0.197,0.15-0.417,0.125-0.656
	c-0.077-0.721-1.498-2.195-0.994-3.102c-0.292-0.769-0.013-1.25,0.173-1.905c0.117-0.412,0.167-0.884,0.285-1.214
	c0.196-0.535,0.707-0.928,0.761-1.473c-0.025-0.203-0.158-0.195-0.184-0.395c0.335-0.464,0.597-0.965,1.08-1.351
	c0.228-0.087,0.201,0.325,0.383,0.322c0.259-0.221,0.177-0.616,0.399-0.856c0.37-0.1,0.695,0.242,0.964-0.139
	c-0.17-0.413-0.481-0.553-0.58-1.105c0.101-0.658,0.843-0.627,1.396-0.896c0.485-0.241,0.746-0.771,1.143-0.984
	c0.707,0.472,1.798-0.662,2.43,0.063c0.169,0.469-0.074,0.724,0.104,1.197c0.564,0.059,0.839-0.673,1.596-0.789
	c0.478,0.208,2.452,1.387,3.103-0.205c0.695-0.543,0.25-1.215,0.268-2.39c0.356-0.13,0.012-0.39-0.01-0.56
	c-0.026-0.214,0.092-0.308,0.007-0.507c-0.16-0.378-0.987-1.061-1.095-1.665c-0.143-0.81,0.878-1.248,0.531-2.188
	c0.216-0.392,0.784-0.778,1.128-1.202c0.162-0.2,0.169-0.457,0.378-0.571c0.242-0.131,0.801-0.115,1.268-0.237
	c0.502-0.131,0.816-0.309,1.15-0.088c3.692-0.36,5.875,2.217,7.702,5.49c-0.568,0.681-1.899-0.088-2.237,0.717
	c0.044,0.326,0.242,0.354,0.347,0.559c-0.208,0.549-0.474,1.291,0.217,1.726c-0.073,0.315-0.497,0.452-0.733,0.685
	c-0.417,0.496-0.069,1.085-0.173,1.735c-0.053,0.354-0.653,0.875-0.604,1.261c0.052,0.405,0.68,0.701,1.052,1.008
	c0.763,0.623,1.433,1.133,2.174,1.712c0.637,0.499,1.047,0.873,1.828,1.152c0.312,0.116,0.557,0.296,0.823,0.296
	c0.395-0.002,0.775-0.085,1.163-0.037c0.759,0.092,1.344,0.453,2.175,0.312c0.921,0.261,2.078,0.742,3.214,0.765
	c0.417,0.009,0.812-0.136,1.251-0.121c0.467,0.013,1.348,0.337,1.945-0.231c0.277-0.021,0.575,0.182,0.861-0.108
	c0.258-0.007,0.365,0.278,0.639,0.244c0.371-0.518,1.626-0.576,2.07-1.057c0.729,0.119,1.157,0.316,1.523,1.079
	c0.434,0.895-0.146,2.038,0.77,2.222c0.456-0.341,1.234-0.236,1.638,0.035c-0.304,0.396-0.688,0.036-1.014-0.011
	c-0.149,0.369-0.635,0.302-0.8,0.65c-0.256,0.054-0.316-0.27-0.641-0.078c-0.276,0.276,0.219,0.643,0.311,0.968
	c1.377,0.023,2.745,1.789,2.392,3.436c1.022,1.34,2.13,2.511,2.973,4.204c0.218,0.075-0.018-0.553,0.376-0.4
	c0.305,0.257-0.117,0.465-0.178,0.673c0.159,0.295,0.34,0.546,0.498,0.852c0.51-0.202,0.916,0.015,1.244,0.384
	c4.173-4.785,11.518-4.739,15.91-2.298c2.874,1.596,5.162,4.172,6.529,7.771c0.789,2.082,1.138,4.582,0.921,6.373
	c-0.081,0.693-0.376,1.448-0.53,2.19c-0.465,2.227-1.486,3.974-3.119,5.65c-1.234,1.271-2.721,2.496-5.049,3.132
	c-3.535,0.965-6.628,0.925-9.147-0.203c-1.157-0.52-2.1-1.128-3.136-1.74c-0.922-0.875-1.958-1.651-2.805-2.802
	c-0.839-1.139-1.603-2.442-2.183-4.009c-1.633-4.395-1.089-8.422,0.683-11.151c-0.814-0.691-1.395-1.427-2.355-2.102
	c-0.412-0.291-0.789-0.518-1.254-0.942c-0.227-0.21-0.527-0.332-0.721-0.499c-0.309-0.266-0.392-0.572-0.669-0.514
	c-0.622,0.133-0.769,2.152-0.86,2.741c-0.779,4.974-1.34,9.842-2.108,14.746c-0.31,1.967-0.687,4.008-0.759,5.85
	c0.07,0.212,0.271,0.166,0.404,0.039c0.029,0.355,0.262,0.476,0.469,0.242c-0.002,0.125-0.043,0.231,0.014,0.389
	c0.105,0.177,0.217-0.029,0.371-0.066C55.749,64.503,56.019,65.05,56.199,64.718z M50.359,30.771
	c-0.42-0.196-1.054,0.148-1.692,0.318c-3.355,0.908-5.221,0.943-7.614,0.199c-0.907-0.282-1.643-1.013-2.293-0.329
	c0.232,0.953,0.804,0.989,1.491,1.149c2.11,0.486,4.52,0.911,6.656,1.006c0.187-0.161,0.309-0.354,0.511-0.505
	c0.332,0.015,0.669,0.021,0.805,0.415c1.106-0.169,2.313-0.536,3.384-0.635c0.181,0.197,0.393,0.339,0.569,0.546
	c0.007,0.16-0.201,0.209-0.091,0.42c0.438-0.083,0.743,0.098,0.975,0.416c0.403-0.462,0.697-1.19,1.348-1.385
	c0.111,0.129,0.196,0.615,0.351,0.392c0.228-0.142-0.119-0.438-0.144-0.624c0.06-0.157,0.235-0.247,0.192-0.456
	c-0.461-0.095-0.727-0.572-1.035-0.956c-0.086-0.004-0.246,0.143-0.274,0.031c-0.19,0.057-0.036,0.29-0.153,0.387
	c-0.297-0.279-0.841-0.072-1.23-0.166c0.134-0.234,0.006-0.324-0.13-0.576C51.482,30.457,50.957,30.546,50.359,30.771z
	 M45.594,43.007c0.069,0.122,0.157,0.323,0.198,0.439c0.612,1.859,0.266,4.183,0.624,5.967c-0.008-0.031-0.014-0.063,0.033-0.065
	c1.57-1.753,2.888-3.575,4.315-5.42c1.038-1.341,2.067-2.913,3.304-4.033c0.678-0.61,1.696-1.088,1.662-1.989
	c-0.163-0.177-0.469-0.081-0.64-0.242c-0.155-0.649-0.841-0.939-1.232-1.399c-0.192-0.188-0.518,0.255-0.795,0.141
	c0.081-0.237,0.214-0.451,0.144-0.771c-0.446-0.433-1.129-0.119-1.137,0.477c-0.553-0.135-1.084-0.318-1.752-0.222
	c-0.236-0.457-0.835-0.782-1.358-0.91c-0.271-0.067-0.787-0.186-1.062-0.166c-0.487,0.035-0.936,0.398-1.265-0.097
	c-3.613,0.724-7.099,1.201-9.843,0.24c-0.095,0.321,0.017,0.743-0.317,0.94c0.344,0.225,0.292,0.413,0.195,0.781
	c-0.209,0.105-0.312,0.005-0.524,0.109c-0.202,0.733-0.936,1.19-0.717,2.137c-0.773,0.41-0.569,1.318-0.277,2.275
	c0.321-0.264,0.466-0.072,0.725-0.008c1.55-0.734,2.675,1.103,3.615-0.262C41.602,41.517,44.381,40.845,45.594,43.007z
	 M32.95,41.679c0.299-0.206,0.724-0.156,1.05-0.393c0.164,0.119,0.295,0.306,0.604,0.143c-0.273-0.636-0.322-1.158-0.3-1.642
	C33.705,40.175,32.818,40.778,32.95,41.679z M57.039,32.722c0.308,0.123,0.871,0.605,1.041,0.45
	c-0.092-0.282-0.403-0.146-0.447-0.525c-0.377,0.065-0.817-0.179-1.15,0.086C56.66,32.743,56.792,32.84,57.039,32.722z
	 M58.839,34.669c-0.277-1.027-1.088-1.377-1.939-1.678c-0.053,0.015-0.102,0.031-0.152,0.047c-0.207,0.348-0.461,0.669-0.821,0.939
	c-0.143,0.085-0.178-0.043-0.32,0.044c-0.179,0.572-0.71,0.966-0.978,1.492c0.572,0.228,0.924,0.891,1.625,0.88
	c0.333,0.7,0.933,0.877,1.453,1.215C58.232,36.808,59.169,35.901,58.839,34.669z M60.143,35.593
	c0.063-1.519-0.962-2.908-2.176-2.945C58.674,33.665,59.381,34.687,60.143,35.593z M58.464,37.868
	c0.824-0.115,1.783-1.379,1.677-1.938c-0.106-0.554-0.776-0.854-1.099-1.328C59.55,36.051,59.076,36.996,58.464,37.868z
	 M57.792,37.694c0.084,0.132,0.174,0.268,0.318,0.289c0.341-0.587,0.953-1.262,0.832-1.948
	C58.611,36.614,58.347,37.229,57.792,37.694z M58.242,38.221c0.704,0.639,1.588,0.93,2.121,1.899
	c0.156-0.089,0.096-0.29,0.275-0.368c0.164,0.035,0.242,0.242,0.488,0.122c0.07-0.171-0.159-0.233-0.066-0.369
	c0.149,0.071,0.198,0.336,0.42,0.258c0.051-0.131-0.063-0.345,0.023-0.457c0.238-0.08,0.191,0.396,0.402,0.377
	c0.046-0.102-0.011-0.261,0.053-0.355c0.528,0.225,0.859,1.035,1.252,1.28c-0.752-1.537-1.872-3.069-2.939-4.271
	C60.056,37.181,59.318,37.963,58.242,38.221z M54.9,42.658c-2.741,3.005-5.468,6.015-8.072,9.09
	c2.756,2.647,2.864,9.099,5.416,11.996c0.117-0.153,0.439-0.198,0.563-0.349c-0.151-0.871,0.549-1.916-0.007-2.463
	c0.08,0.038,0.198-0.001,0.321-0.049c0.07-0.799,0.145-1.595,0.313-2.342c-0.177,0.014-0.379,0.074-0.4-0.207
	c0.081-0.193,0.362-0.019,0.438-0.197c0.367-4.509,0.956-9.162,1.489-13.54c0.08-0.646,0.281-1.304,0.105-1.938
	C54.998,42.684,54.949,42.671,54.9,42.658z M62.232,41.932c0.61,0.481,1.23,1.376,1.961,1.39c-0.438-1.102-1.313-1.352-1.986-1.999
	c-0.269,0.059-0.464-0.033-0.691-0.058C61.656,41.653,61.932,41.69,62.232,41.932z M71.363,42.087
	c-0.049,0.017-0.047,0.058-0.085,0.082c-0.307-0.174-0.453-0.662-0.661-1.021c-0.141-0.016-0.454,0.175-0.646,0.263
	c1.152,2.25,2.285,4.531,3.451,6.741c0.381-0.134,0.736-0.22,1.051-0.223c-0.941-2.355-2.028-4.861-2.822-7.224
	C70.371,40.733,71.366,41.79,71.363,42.087z M75.103,44.306c0.181-1.349,0.309-2.725,0.553-4.044
	c-1.125-0.073-2.519-0.056-3.787,0.429c0.995,2.194,1.816,4.719,2.826,6.885c-0.088-0.74,0.369-1.559,0.279-2.443
	c-0.043-0.43-0.262-0.922-0.388-1.389c-0.214-0.787-0.383-1.605-0.564-2.287c-0.095-0.345-0.423-0.809-0.089-1.147
	C74.473,41.525,74.671,43.146,75.103,44.306z M68.289,42.454c0.975,1.596,2.251,3.045,3.034,4.746
	c0.263,0.182,0.539,0.438,0.835,0.685c0.246,0.21,0.564,0.673,0.926,0.433c-0.992-2.2-2.275-4.547-3.402-6.758
	C69.154,41.826,68.738,42.149,68.289,42.454z M70.703,46.669c-0.643-1.111-1.793-2.675-2.622-3.98
	c-0.397,0.218-0.552,0.564-0.851,0.836C68.326,44.692,69.54,45.633,70.703,46.669z M75.812,47.218
	c0.019,0.055,0.065,0.121,0.066,0.034c0.688-2.165,1.266-4.386,2-6.526c-0.654-0.156-1.291-0.356-1.986-0.431
	C75.888,42.612,74.805,44.413,75.812,47.218z M76.482,46.162c-0.144,0.461-0.543,1.504-0.425,1.816
	c0.127,0.339,0.629,0.401,0.854,0.565c0.668-1.811,1.666-4.157,2.468-6.114c0.058-0.142,0.356-0.826,0.33-0.889
	c-0.122-0.303-1.535-0.527-1.63-0.712C77.737,42.341,77.023,44.44,76.482,46.162z M65.018,47.819
	c0.853,0.309,1.782,0.66,2.606,0.959c0.275,0.102,0.559,0.351,0.858,0.229c-0.745-0.973-1.95-1.764-2.907-2.597
	c-0.016-0.033-0.027-0.059-0.068-0.037C65.365,46.866,65.103,47.296,65.018,47.819z M77.265,48.432
	c1.119-0.592,1.541-1.271,2.07-2.119c0.756-1.215,1.492-2.385,2.168-3.556c-0.533-0.313-0.988-0.775-1.562-1.012
	C79.081,43.989,78.134,46.191,77.265,48.432z M68.405,47.014c0.482,0.492,1.058,0.882,1.604,1.336
	c0.51,0.424,0.964,1.114,1.672,1.199c-0.974-1.069-2.07-1.909-3.174-2.733c-0.023-0.037-0.061-0.047-0.117-0.021
	C68.392,46.869,68.349,46.915,68.405,47.014z M64.898,48.142c-0.115,0.632-0.248,1.257-0.277,1.938
	c1.459,0.243,2.877,0.57,4.314,0.857c-0.162-0.49-0.317-0.982-0.476-1.473C67.281,49.004,66.133,48.486,64.898,48.142z
	 M81.701,43.032c-0.768,1.303-1.604,2.57-2.342,3.887c1.253-0.868,2.424-1.78,3.695-2.639C82.66,43.757,82.222,43.31,81.701,43.032z
	 M74.96,47.88c0.265-0.019,0.455,0.108,0.74,0.045c-0.193-0.607-0.281-1.389-0.551-1.896C75.166,46.688,74.98,47.243,74.96,47.88z
	 M64.697,52.071c1.344-0.302,2.867-0.506,4.098-0.867c-1.412-0.25-2.799-0.557-4.193-0.84C64.625,50.928,64.571,51.45,64.697,52.071
	z M81.109,46.079c-1.205,0.881-2.567,1.531-2.799,2.636c1.929-0.989,4.176-1.814,6.041-2.833c-0.382-0.441-0.654-1.097-1.115-1.38
	C82.574,44.968,81.86,45.531,81.109,46.079z M69.153,49.353c-0.021-0.124-0.071-0.192-0.13-0.237
	c-0.051,0.017-0.102,0.034-0.154,0.05C68.909,49.333,69.007,49.39,69.153,49.353z M69.238,51.005c0.41,0.109,1.15,0.015,1.604-0.231
	c-0.598-0.437-1.137-0.979-1.877-1.134C69,50.065,69.15,50.557,69.238,51.005z M74.197,49.695c0.599-0.273-0.229-0.909-0.529-0.95
	c-0.038,0.316-0.258,0.015-0.387,0.015C73.552,49.139,74.042,49.094,74.197,49.695z M74.126,48.6
	c0.021,0.173,0.109,0.226,0.164,0.339c0.342-0.065,0.225-0.365,0.26-0.586C74.365,48.508,74.326,48.484,74.126,48.6z M72.068,49.879
	c0.059-0.177-0.104-0.471-0.336-0.344C71.657,49.745,71.875,49.93,72.068,49.879z M74.995,49.387
	c0.361,0.086,0.353-0.347,0.378-0.571C75.162,48.962,74.991,49.13,74.995,49.387z M65.179,54.439
	c1.456-0.622,2.949-1.228,4.395-1.856c-0.176-0.326-0.324-0.69-0.463-1.087c-1.48,0.299-2.986,0.639-4.431,0.862
	C64.866,53.061,64.893,53.683,65.179,54.439z M75.445,49.746c0.242-0.131,0.377-0.315,0.648-0.431
	c-0.076-0.182-0.103-0.465-0.232-0.543C75.521,48.992,75.62,49.44,75.445,49.746z M72.621,50.37
	c0.023-0.178-0.072-0.268-0.182-0.392c-0.052,0.018-0.102,0.033-0.154,0.049C72.232,50.197,72.353,50.574,72.621,50.37z
	 M77.195,48.903c0.111,0,0.109,0.229,0.233,0.206c0.42-0.194,0.696-0.688,0.701-0.956C77.877,48.438,77.446,48.624,77.195,48.903z
	 M79.122,48.624c-0.505,0.227-1.118,0.422-1.396,0.896c0.234,0.343,0.361,0.891,0.576,1.271c2.375-0.945,4.615-1.958,6.973-2.907
	c-0.27-0.58-0.439-1.349-0.859-1.634C82.751,47.04,80.853,47.838,79.122,48.624z M75.107,49.909
	c-0.076-0.151,0.118-0.163,0.004-0.337c-0.104,0.012-0.139-0.115-0.287-0.017C74.758,49.719,74.906,50.003,75.107,49.909z
	 M69.878,52.484c0.252-0.168,0.648-0.263,0.934-0.412c-0.123-0.581-0.816-0.708-1.428-0.607
	C69.539,51.824,69.685,52.198,69.878,52.484z M76.965,49.764c0.137-0.027,0.214-0.089,0.152-0.219
	C76.982,49.572,76.908,49.634,76.965,49.764z M32.354,64.122c0.932,1.657,1.856,3.326,2.847,4.862
	c-0.245-1.911-0.523-3.833-0.709-5.715C33.677,63.502,32.938,63.773,32.354,64.122z M35.441,68.685
	c0.286-0.378,0.582-0.749,0.94-1.088c0.052-1.529,0.214-3.002,0.221-4.554c-0.636,0.055-1.255,0.073-1.944,0.23
	C35.025,65.103,35.09,67.005,35.441,68.685z M30.636,65.234c1.281,1.719,2.619,3.325,3.979,4.891
	c-0.039-0.283,0.422-0.552,0.381-0.907c-0.032-0.28-0.499-0.822-0.729-1.223c-0.73-1.265-1.5-2.791-2.188-3.671
	C31.536,64.595,31.151,64.948,30.636,65.234z M76.688,50.47c0.126-0.118,0.307-0.211,0.325-0.384
	c-0.125-0.012-0.217-0.078-0.389,0.011C76.646,50.222,76.603,50.311,76.688,50.47z M70.986,52.972
	c0.137,0.173,0.39,0.118,0.676,0.003c0.074-0.3,0.047-0.652-0.055-1.044C71.068,51.946,71.006,52.552,70.986,52.972z M36.656,67.228
	c0.646-0.472,0.828-1.186,1.287-1.757c-0.209-0.827-0.129-1.506-0.495-2.419c-0.235,0.066-0.391-0.012-0.609,0.028
	C36.849,64.497,36.666,65.817,36.656,67.228z M77.681,50.595c-0.115-0.157-0.24-0.299-0.402-0.373
	C77.118,50.464,77.465,50.598,77.681,50.595z M70.06,52.705c0.134,0.151,0.225,0.392,0.451,0.361
	c0.079-0.188,0.065-0.421,0.143-0.608C70.482,52.556,70.308,52.648,70.06,52.705z M30.431,65.472
	c-0.606,0.365-0.981,0.852-1.5,1.264c1.556,1.812,3.214,3.434,4.768,5.251c0.37-0.444,0.631-0.944,0.809-1.49
	C33.127,68.865,31.793,67.143,30.431,65.472z M65.275,54.745c0.172,0.628,0.42,1.114,0.641,1.643
	c1.729-0.824,3.578-1.583,5.279-2.42c-0.291-0.015-0.492-0.201-0.724-0.328c0.144-0.038,0.15-0.135,0.054-0.186
	c-0.287-0.133-0.568-0.271-0.754-0.598C68.259,53.478,66.74,54.095,65.275,54.745z M78.908,50.933
	c2.088,0.125,4.686-0.745,6.93-0.933c-0.139-0.599-0.219-1.163-0.465-1.813C83.181,49.085,80.98,49.974,78.908,50.933z
	 M76.98,51.383c0.156-0.175,0.68-0.159,0.714-0.396C77.425,50.859,76.537,50.864,76.98,51.383z M28.727,66.97
	c-0.409,0.482-0.807,0.972-1.15,1.488c0.732,0.68,1.593,1.221,2.444,1.854c1.281,0.947,2.37,2.074,3.923,2.271
	C32.213,70.695,30.505,68.764,28.727,66.97z M76.935,52.296c-0.15-0.065-0.098-0.521-0.314-0.459
	C76.523,52.003,76.931,52.327,76.935,52.296z M75.767,52.501c0.166-0.098,0.219,0.014,0.375-0.064
	c0.004-0.137,0.16-0.199,0.035-0.403C75.893,52.11,75.692,52.233,75.767,52.501z M74.736,52.944
	c-0.004-0.184,0.147-0.236,0.287-0.149c-0.054-0.111-0.054-0.197-0.031-0.268C74.791,52.579,74.583,52.854,74.736,52.944z
	 M77.716,51.931c0.17-0.038,0.227-0.139,0.189-0.283c-0.08-0.04-0.199-0.001-0.32,0.047C77.604,51.816,77.654,51.886,77.716,51.931z
	 M73.97,53.189c-0.464-0.474-0.486,0.415-0.057,0.523c0.02,0.218-0.195,0.322-0.088,0.589c0.545,0.357,0.786-0.435,1.189-0.661
	C74.913,53.011,74.527,52.937,73.97,53.189z M75.343,52.917c0.226-0.006,0.092-0.418-0.065-0.373
	C75.363,52.701,75.318,52.793,75.343,52.917z M85.162,56.271c0.011,0.034,0.021,0.07,0.031,0.101
	c-0.063,0.024-0.05,0.088-0.137,0.101c-2.391-0.877-4.833-2.099-7.139-2.868c2.107,1.537,4.205,3.1,6.31,4.649
	c0.729-1.098,1.224-2.312,1.526-3.63c-1.778-0.918-3.635-1.7-5.44-2.459c-0.604-0.255-1.208-0.74-1.935-0.616
	c0.003,0.642-0.143,1.204-0.273,1.771C80.484,54.255,82.851,55.207,85.162,56.271z M77.473,52.739
	c0.504-0.109,0.157-0.835-0.196-0.779C77.134,52.102,77.351,52.603,77.473,52.739z M85.844,54.204
	c0.028-0.569,0.181-1.069,0.136-1.671c-2.18-0.353-4.286-0.854-6.484-1.173c-0.036,0.026-0.101,0.035-0.086,0.086
	C81.592,52.291,83.648,53.379,85.844,54.204z M76.796,52.733c-0.102-0.162-0.15-0.427-0.385-0.326
	C76.486,52.617,76.657,52.651,76.796,52.733z M86.001,52.248c0.009-0.634-0.027-1.289-0.129-1.978
	c-1.754,0.356-3.637,0.52-5.295,0.967C82.409,51.528,84.201,51.895,86.001,52.248z M70.374,54.733
	c-1.435,0.656-2.933,1.275-4.323,1.894c0.367,0.636,0.746,1.245,1.211,1.685c1.18-1.142,2.685-2.412,3.938-3.447
	c0.172-0.144,0.536-0.258,0.495-0.554C71.242,54.118,70.798,54.542,70.374,54.733z M75.917,54.358
	c-0.016-0.049,0.021-0.073,0.018-0.116c0.188-0.09,0.276,0.01,0.475-0.098c-0.125-0.307,0.213-1.175-0.357-1.285
	C75.994,53.321,75.851,53.973,75.917,54.358z M27.388,68.743c-0.309,0.561-0.641,1.111-0.847,1.729
	c1.747,0.453,3.454,0.989,5.183,1.478C30.302,70.835,28.876,69.728,27.388,68.743z M72.724,54.374
	c-0.27,0.059-0.28,0.25-0.577,0.296c-0.986,1.801-2.155,3.503-3.181,5.279c0.594,0.331,1.125,0.783,1.779,1.003
	c0.505-1.626,1.074-3.323,1.622-4.896c0.181-0.517,0.485-1.041,0.441-1.597C72.765,54.463,72.736,54.434,72.724,54.374z
	 M76.74,53.254c-0.052,0.187-0.148,0.529,0.057,0.71C77.457,53.788,77.167,53.102,76.74,53.254z M71.396,55.473
	c0.123-0.194,0.291-0.532,0.207-0.571c-1.293,1.201-2.75,2.318-4.089,3.498c-0.142,0.109-0.149-0.041-0.237-0.037
	c0.419,0.537,0.918,0.916,1.389,1.352C69.57,58.377,70.56,56.82,71.396,55.473z M74.732,54.515c0.123,0.013,0.158,0.187,0.32,0.123
	c0.042-0.22,0.182-0.613,0.027-0.796C74.991,54.082,74.738,54.231,74.732,54.515z M39.947,68.751
	c0.945-1.409,2.11-2.706,2.984-4.152c-0.108,0.02-0.144-0.104-0.25-0.088c-0.049,0.861-1.186,1.271-2.146,1.53
	C40.378,66.938,40.012,67.95,39.947,68.751z M70.994,61.038c0.461,0.372,1.045,0.499,1.615,0.659
	c0.732-2.185,1.545-4.324,2.218-6.541c-0.638,0.004-1.132-0.275-1.7-0.408C72.448,56.863,71.732,58.956,70.994,61.038z
	 M41.436,67.098c-0.897,1.222-2.045,2.4-2.002,3.894c1.808-1.659,3.545-3.354,5.206-5.088c-0.484-0.355-0.927-0.784-1.423-1.113
	C42.629,65.486,42.041,66.274,41.436,67.098z M36.6,67.752c-0.004,0.875-0.169,1.893-0.097,2.665
	c0.243-0.652,0.712-1.187,0.78-1.932c-0.088-0.156-0.289-0.096-0.368-0.274c0.131-0.008,0.256,0,0.424-0.079
	c-0.118-0.509,0.681-0.871,0.134-1.332C37.144,67.1,36.942,67.46,36.6,67.752z M76.009,55.001c1.018,2.316,2.078,4.545,3.098,6.855
	c0.598-0.171,1.112-0.388,1.592-0.623c-1.018-2.451-2.023-4.922-3.107-7.246C77.279,54.439,76.735,54.767,76.009,55.001z
	 M39.044,66.462c-0.544,1.22-0.508,2.965-0.588,4.283c0.356-0.498,0.709-0.994,1.096-1.475c0.17-1.073,0.54-2.044,0.678-3.133
	C39.808,66.301,39.48,66.282,39.044,66.462z M30.896,71.989c-1.464-0.417-2.943-0.938-4.39-1.28
	c-0.012-0.03-0.028-0.059-0.068-0.035c-0.139,0.467-0.338,0.899-0.388,1.415c2.368,0.186,4.793,0.695,7.048,0.821
	C32.474,72.292,31.732,72.232,30.896,71.989z M75.216,55.143c-0.809,2.207-1.545,4.443-2.29,6.68
	c0.578,0.144,1.152,0.289,1.788,0.323c0.24-2.339,0.566-4.63,0.722-7.015C75.343,55.173,75.304,55.11,75.216,55.143z M76.974,62.204
	c0.574-0.041,1.149-0.089,1.811-0.301c-0.996-2.219-1.98-4.456-3.016-6.601C76.169,57.602,76.572,59.902,76.974,62.204z
	 M80.988,61.086c0.621-0.288,1.109-0.647,1.582-1.013c-1.439-1.877-2.889-3.738-4.359-5.554
	C79.125,56.731,80.072,58.876,80.988,61.086z M35.468,69.29c0.103,0.051,0.259-0.006,0.355,0.055
	c-0.172,0.056-0.121,0.223-0.308,0.269c0.237,0.364,0.427,0.816,0.695,1.122c0.005-0.891,0.119-1.722,0.114-2.617
	c0.054-0.018,0.02-0.075-0.066-0.033C36.046,68.513,35.353,68.694,35.468,69.29z M82.84,59.875c0.408-0.485,0.948-0.903,1.216-1.456
	c-1.863-1.134-3.527-2.656-5.376-3.823C80.07,56.353,81.445,58.135,82.84,59.875z M48.638,66.136
	c0.184-0.091,0.361-0.183,0.391-0.353c-0.413-0.541-0.867-1.011-1.559-1.014C47.841,65.263,48.267,65.644,48.638,66.136z
	 M44.771,66.142c-1.393,1.459-2.942,2.842-4.335,4.305c1.803-1.024,3.979-1.858,5.538-3.01c-0.085-0.25-0.222-0.396-0.382-0.493
	c-0.174,0.173-0.47,0.457-0.735,0.685c-0.234,0.197-0.583,0.634-0.762,0.242c0.408-0.397,0.811-0.799,1.313-1.148
	C45.239,66.438,45.032,66.238,44.771,66.142z M26.013,72.323c-0.238,0.751-0.263,1.618-0.264,2.498
	c1.879,0.154,3.894,0.31,5.868,0.468c0.795,0.065,1.729,0.267,2.332-0.073c-0.358-0.666-0.302-1.293-0.197-1.842
	C31.238,72.896,28.616,72.628,26.013,72.323z M75.015,62.215c0.534-0.013,1.205,0.125,1.673-0.03
	c-0.437-1.896-0.599-3.872-1.085-5.652C75.472,58.46,75.204,60.316,75.015,62.215z M37.609,70.902
	c0.195,0.009,0.353,0.087,0.54,0.108c0.002-0.818,0.23-1.75,0.165-2.464C38.121,69.354,37.8,70.094,37.609,70.902z M35.021,69.997
	c0.045,0.161,0.188,0.131,0.319,0.119c-0.106-0.104,0.083-0.258-0.08-0.255C35.302,69.971,35.087,69.944,35.021,69.997z
	 M48.871,66.509c0.042,0.191,0.234,0.093,0.37,0.104c0.071-0.131-0.026-0.353,0.004-0.507
	C49.056,66.209,48.875,66.313,48.871,66.509z M46.105,67.675c-0.651,0.543-1.25,1.113-1.811,1.698
	c0.884-0.292,1.706-0.62,2.494-0.964C46.62,68.052,46.401,67.786,46.105,67.675z M38.453,71.083c0.049,0.148,0.187,0.129,0.25,0.254
	c0.167-0.04,0.188-0.159,0.392-0.181c0.016-0.362,0.35-1.003,0.181-1.181C39.042,70.367,38.768,70.735,38.453,71.083z
	 M43.702,69.624c0.371-0.476,0.918-0.858,1.315-1.32c-1.746,0.941-3.54,1.855-5.199,2.846
	C41.126,70.646,42.434,70.144,43.702,69.624z M33.989,73.071c-0.017-0.105,0.106-0.141,0.089-0.249
	c-0.362,0.042-0.761-0.281-1.01-0.184C33.394,72.75,33.564,73.157,33.989,73.071z M49.332,67.425
	c0.082,0.198,0.165,0.393,0.315,0.459c0.115-0.197,0.268-0.372,0.446-0.534C49.974,67.018,49.565,67.336,49.332,67.425z
	 M26.01,77.034c2.258-0.539,4.622-0.84,6.769-1.442c-2.385-0.097-4.654-0.418-7.05-0.485C25.835,75.754,25.806,76.336,26.01,77.034z
	 M42.367,71.228c1.29-0.704,2.894-1.349,4.16-2.062c0.133-0.076,0.466-0.196,0.428-0.417C45.079,69.114,43.06,70.113,42.367,71.228z
	 M39.204,71.681c0.238,0.255,0.49,0.477,0.701,0.785c1.423-0.57,2.36-1.393,3.132-2.294C41.709,70.647,40.419,71.144,39.204,71.681z
	 M51.125,73.016c0.347-0.571,1.096-0.938,1.218-1.621c-0.108-0.184-0.246-0.295-0.298-0.579c0.09-0.224,0.307-0.381,0.295-0.656
	c-0.176-0.017-0.303-0.127-0.557,0.011c-0.492-0.444-0.844-1.02-1.488-1.315c-0.034,0.011-0.068,0.02-0.104,0.032
	C50.601,70.286,51.011,71.909,51.125,73.016z M26.646,79.185c1.844-1.104,3.967-2.063,5.691-3.227
	c-2.136,0.492-4.204,0.853-6.312,1.295C26.194,77.937,26.37,78.538,26.646,79.185z M44.01,72.157
	c1.342-0.214,2.644-0.35,4.009-0.612c-0.119-0.458-0.292-0.808-0.441-1.203C46.345,70.926,45.032,71.468,44.01,72.157z
	 M41.295,73.479c2.425-0.013,4.757,0.16,7.207,0.099c-0.131-0.592-0.146-1.124-0.401-1.779
	C45.818,72.242,43.332,72.111,41.295,73.479z M26.76,79.37c0.291,0.625,0.619,1.166,0.977,1.65c2.074-1.751,4.15-3.497,6.087-5.314
	C31.255,76.649,29.155,78.197,26.76,79.37z M27.887,81.308c0.439,0.493,0.849,1.045,1.316,1.484
	c1.859-1.604,3.556-3.293,5.441-4.884c-0.367-0.824-0.377-1.693-0.431-2.216C32.203,77.613,29.896,79.387,27.887,81.308z
	 M40.803,73.692c-0.173-0.009-0.281,0.275-0.425,0.248c0.131,0.548-0.046,0.938-0.117,1.382c2.593,0.208,5.157,0.478,7.773,0.646
	c0.544-0.498,0.482-1.308,0.446-2.104C46.09,73.768,43.162,73.785,40.803,73.692z M34.816,77.741
	c0.085-0.225,0.45-0.305,0.493-0.553c-0.327-0.076-0.522-0.416-0.803-0.581C34.424,76.882,34.536,77.542,34.816,77.741z
	 M40.471,76.151c0.406,0.242,0.827,0.533,1.159,0.473c-0.556-0.271-0.972-0.809-1.559-1.016
	C39.87,75.821,40.211,75.998,40.471,76.151z M46.208,77.789c0.442-0.567,1.135-1.005,1.504-1.605
	c-2.378-0.159-4.716-0.399-7.083-0.587C42.076,77.131,44.23,77.285,46.208,77.789z M35.351,78.187
	c0.223-0.238,0.251-0.802,0.699-0.785c-0.111,0.368-0.165,0.764-0.183,1.18c0.255,0.083,0.502,0.182,0.827,0.128
	c0.203-0.245,0.458-0.687,0.885-0.565c-0.061-0.16-0.188-0.186-0.232-0.374c-0.671,0.2-1.091-0.081-1.411-0.556
	C35.419,77.28,35.292,77.858,35.351,78.187z M35.081,78.049c-0.024-0.077,0.123-0.27-0.029-0.27
	C34.983,77.857,34.86,78.056,35.081,78.049z M29.42,82.947c0.485,0.515,1.026,0.922,1.625,1.218c1.022-1.43,2.111-2.992,3.122-4.423
	c0.318-0.451,0.968-0.95,0.659-1.612C32.993,79.55,31.217,81.363,29.42,82.947z M35.667,78.478c-0.075-0.152,0.008-0.22,0.005-0.338
	C35.473,78.229,35.411,78.486,35.667,78.478z M37.987,77.845c0.145,0.294,0.274,0.684,0.53,0.951
	c-0.017-0.417-0.237-0.942-0.07-1.267C38.21,77.591,38.118,77.729,37.987,77.845z M35.226,78.676
	c-0.824,2.107-1.346,4.372-1.983,6.577c0.625,0.128,1.196,0.368,1.869,0.409c0.109-2.32,0.371-4.563,0.483-6.882
	C35.448,78.793,35.402,78.609,35.226,78.676z M41.908,84.827c0.7-0.305,1.144-0.739,1.718-1.111
	c-0.63-0.837-1.331-1.544-1.948-2.401c-0.237,0.077-0.475,0.154-0.712,0.229c0.615-0.852-0.388-1.466-1.072-2.291
	c-0.558-0.675-0.999-1.329-1.35-1.586C38.875,80.567,40.818,82.393,41.908,84.827z M41.032,80.179
	c-0.354-0.814,0.103-2.044-0.677-2.813c-0.232,0.063,0.017,0.376-0.191,0.456c-0.414-0.105-0.811-0.24-1.262-0.27
	C39.454,78.408,40.321,79.359,41.032,80.179z M42.585,78.726c0.425,0.479,0.76,0.942,1.166,1.363
	c0.416-0.324,0.716-0.707,1.127-1.032c-1.171-0.809-2.146-1.991-3.624-2.205C41.409,77.791,42.079,78.151,42.585,78.726z
	 M35.364,85.75c0.689,0.008,1.3,0.17,2.043,0.071c0.062-2.44,0.234-4.828,0.302-7.27c-0.55,0.453-1.312,0.5-1.895,0.384
	C35.738,81.243,35.416,83.427,35.364,85.75z M37.642,85.859c0.642-0.036,1.29-0.088,1.96-0.179
	c-0.145-0.968-0.308-1.984-0.471-3.044c-0.238-1.542-0.276-3.165-1.168-4.167C37.865,80.938,37.717,83.381,37.642,85.859z
	 M31.245,84.268c0.538,0.386,1.114,0.695,1.779,0.83c0.493-1.784,1.012-3.555,1.547-5.315c-0.009-0.067,0.046-0.129-0.082-0.087
	C33.451,81.241,32.329,82.743,31.245,84.268z M45.133,78.807c0.259-0.278,0.58-0.524,0.802-0.819
	c-0.997-0.18-2.083-0.631-3.015-0.66C43.695,77.749,44.327,78.447,45.133,78.807z M42.002,79.529
	c0.351,0.061,0.662,0.198,0.891,0.498c-0.005,0.212-0.169,0.339-0.028,0.624c0.331,0.154,0.496-0.203,0.731-0.344
	c-0.676-0.782-1.314-1.629-2.067-2.254C41.544,78.56,41.884,78.969,42.002,79.529z M46.528,77.909
	c0.419,0.039,0.752,0.245,1.195,0.234c0.143-0.578,0.421-1.087,0.46-1.72c0.052-0.017,0.018-0.077-0.069-0.031
	C47.626,76.92,47.014,77.381,46.528,77.909z M39.857,85.598c0.619-0.034,1.334-0.311,1.879-0.602
	c-0.9-1.631-1.798-3.271-2.762-4.775C39.301,82.03,39.499,83.773,39.857,85.598z M46.256,78.11c-0.295,0.301-0.592,0.6-0.957,0.865
	c0.443,0.403,0.948,0.688,1.407,1.063c0.443-0.477,0.662-1.073,0.863-1.681C47.09,78.357,46.735,78.112,46.256,78.11z
	 M45.043,79.226c-0.334,0.383-0.806,0.689-1.111,1.083c0.509,0.504,0.966,1.097,1.469,1.604c0.506-0.5,0.917-1.055,1.202-1.673
	C46.063,79.938,45.645,79.407,45.043,79.226z M42.164,81.607c0.593,0.579,1.08,1.364,1.682,1.925
	c0.493-0.438,0.933-0.905,1.417-1.351c-0.497-0.627-1.006-1.23-1.566-1.739C43.378,80.929,42.648,81.206,42.164,81.607z"/>
</svg>
